<?xml version="1.0" standalone="no"?>
<!DOCTYPE svg PUBLIC "-//W3C//DTD SVG 20010904//EN"
 "http://www.w3.org/TR/2001/REC-SVG-20010904/DTD/svg10.dtd">
<svg version="1.0" xmlns="http://www.w3.org/2000/svg"
 width="819.000000pt" height="460.000000pt" viewBox="0 0 819.000000 460.000000"
 preserveAspectRatio="xMidYMid meet">

<g transform="translate(0.000000,460.000000) scale(0.100000,-0.100000)"
fill="#000000" stroke="none">
<path d="M2540 2330 l0 -630 1400 0 1400 0 0 630 0 630 -915 0 c-565 0 -915
-4 -915 -9 0 -6 5 -13 10 -16 6 -3 10 -15 10 -26 0 -10 7 -19 15 -19 21 0 19
-33 -4 -58 -23 -27 -37 -28 -51 -1 -9 16 -14 18 -25 9 -8 -6 -15 -21 -17 -33
-3 -21 -7 -22 -167 -24 -121 -2 -167 -6 -173 -15 -6 -10 -10 -10 -17 1 -6 10
-19 12 -44 7 -32 -6 -35 -10 -40 -49 -2 -23 -8 -53 -12 -66 -7 -20 -5 -23 8
-18 25 9 22 -28 -4 -52 -18 -17 -21 -29 -19 -98 3 -99 3 -103 -14 -103 -20 0
-28 43 -16 92 13 59 13 60 -10 53 -14 -4 -20 -2 -20 8 0 10 7 13 20 10 18 -5
20 0 20 51 0 41 -4 56 -14 56 -11 0 -13 -10 -9 -40 5 -33 3 -40 -11 -40 -12 0
-16 10 -16 44 0 27 -6 51 -16 60 -19 19 -34 21 -34 4 0 -7 -6 -1 -14 14 -13
25 -18 202 -6 238 4 13 -17 15 -147 18 l-153 3 0 -631z m280 430 c0 -5 -7 -10
-15 -10 -8 0 -15 5 -15 10 0 6 7 10 15 10 8 0 15 -4 15 -10z m478 -2 c-6 -18
-28 -21 -28 -4 0 9 7 16 16 16 9 0 14 -5 12 -12z m586 -21 c16 -22 21 -46 24
-127 5 -116 1 -138 -34 -179 -24 -29 -31 -31 -90 -31 l-64 0 0 185 0 186 71
-3 c65 -3 74 -6 93 -31z m296 -2 c0 -32 -2 -35 -30 -35 -28 0 -30 3 -30 35 0
32 2 35 30 35 28 0 30 -3 30 -35z m322 -62 l3 -97 25 47 c22 41 29 47 57 47
30 0 31 -1 23 -30 -5 -16 -20 -45 -35 -64 l-26 -34 29 -49 c17 -26 33 -58 37
-70 6 -21 3 -23 -27 -23 -30 0 -36 4 -46 34 -7 19 -19 40 -27 46 -13 11 -15 6
-15 -34 0 -44 -1 -46 -30 -46 l-30 0 0 185 0 185 30 0 29 0 3 -97z m218 62 c0
-32 -2 -35 -30 -35 -28 0 -30 3 -30 35 0 32 2 35 30 35 28 0 30 -3 30 -35z
m-1676 -30 c3 -8 1 -15 -4 -15 -6 0 -10 7 -10 15 0 8 2 15 4 15 2 0 6 -7 10
-15z m376 -5 c8 -5 12 -12 8 -15 -8 -8 -58 5 -58 16 0 12 31 11 50 -1z m-139
-23 c15 -11 17 -53 18 -368 2 -303 0 -359 -13 -371 -15 -16 -131 -32 -148 -22
-6 4 -8 21 -5 39 3 19 -1 44 -9 60 -8 15 -14 43 -14 61 0 30 4 35 30 41 30 5
42 23 17 23 -8 0 -22 9 -32 20 -16 17 -17 40 -13 257 3 131 8 246 13 256 6 14
20 17 74 17 36 0 73 -6 82 -13z m800 -35 c-5 -20 -15 -28 -37 -32 l-29 -5 -3
-103 -3 -103 -32 3 -32 3 -3 131 -3 131 75 1 74 1 -7 -27z m99 -107 l0 -135
-30 0 -30 0 0 135 0 135 30 0 30 0 0 -135z m203 116 c8 -8 13 -55 15 -131 l4
-120 -31 0 -31 0 0 100 c0 83 -3 102 -16 107 -26 10 -34 -16 -34 -115 l0 -93
-32 3 -33 3 -3 132 -3 132 76 -3 c42 -1 81 -8 88 -15z m337 -116 l0 -135 -30
0 -30 0 0 135 0 135 30 0 30 0 0 -135z m213 116 c8 -7 13 -57 15 -131 l4 -120
-31 0 -31 0 0 86 c0 93 -10 124 -40 124 -19 0 -20 -7 -20 -106 l0 -105 -27 3
-28 3 -3 133 -3 133 76 -4 c42 -2 82 -10 88 -16z m217 -145 c0 -150 -1 -161
-22 -183 -46 -49 -148 -20 -148 42 0 21 5 25 30 25 20 0 30 -5 30 -15 0 -9 9
-15 25 -15 18 0 25 5 25 19 0 15 -8 18 -40 18 -60 0 -69 18 -70 137 0 128 6
135 101 134 l69 -2 0 -160z m-2333 58 c-3 -3 -12 -4 -19 -1 -8 3 -5 6 6 6 11
1 17 -2 13 -5z m83 -26 c0 -16 -3 -19 -11 -11 -6 6 -8 16 -5 22 11 17 16 13
16 -11z m-50 -48 c0 -5 -7 -10 -16 -10 -8 0 -12 5 -9 10 3 6 10 10 16 10 5 0
9 -4 9 -10z m220 0 c0 -5 -4 -10 -10 -10 -5 0 -10 5 -10 10 0 6 5 10 10 10 6
0 10 -4 10 -10z m-183 -52 c-3 -7 -5 -2 -5 12 0 14 2 19 5 13 2 -7 2 -19 0
-25z m96 -158 c7 -29 -6 -56 -22 -46 -12 8 -14 39 -4 75 7 26 16 16 26 -29z
m967 -62 c0 -27 -2 -29 -32 -26 -29 3 -33 6 -29 28 4 30 16 39 42 33 13 -4 19
-14 19 -35z m-142 -40 c2 -20 9 -28 23 -28 14 0 19 -7 19 -25 0 -18 -5 -25
-20 -25 -18 0 -20 -7 -20 -75 0 -71 1 -75 25 -81 18 -4 25 -13 25 -29 0 -30
-42 -37 -82 -15 -30 17 -38 44 -38 136 0 62 -1 64 -26 64 -21 0 -25 4 -22 23
2 14 11 23 26 25 17 3 22 10 22 33 0 28 2 30 33 27 27 -2 33 -8 35 -30z m232
-27 c0 -5 15 -4 35 2 26 8 42 7 61 -2 19 -8 30 -9 38 -1 17 17 61 12 90 -11
25 -20 26 -23 26 -135 l0 -114 -30 0 -30 0 0 93 c0 62 -4 99 -13 112 -27 36
-37 7 -37 -101 l0 -104 -30 0 c-25 0 -30 4 -34 33 -3 17 -5 62 -3 99 2 74 -10
101 -38 78 -12 -10 -15 -34 -15 -111 l0 -99 -30 0 -30 0 0 135 c0 128 1 135
20 135 11 0 20 -4 20 -9z m-950 -11 c0 -5 -5 -10 -11 -10 -5 0 -7 5 -4 10 3 6
8 10 11 10 2 0 4 -4 4 -10z m862 -18 c2 -15 2 -74 0 -130 l-4 -102 -34 0 -34
0 0 114 c0 63 3 121 6 130 4 9 18 16 34 16 23 0 28 -5 32 -28z m512 13 c35
-15 36 -17 36 -70 l0 -55 -60 0 c-57 0 -60 -1 -60 -24 0 -28 24 -51 45 -42 8
3 15 15 15 26 0 16 7 20 30 20 28 0 30 -2 30 -38 0 -36 -3 -41 -39 -57 -45
-20 -81 -15 -111 15 -17 17 -20 34 -20 108 0 92 3 102 35 120 27 16 56 15 99
-3z"/>
<path d="M3790 2590 c0 -125 2 -130 44 -114 13 5 16 24 16 108 0 105 -7 126
-42 126 -16 0 -18 -11 -18 -120z"/>
<path d="M5047 2603 c-11 -11 -8 -131 3 -138 22 -13 40 17 40 65 0 27 -3 55
-6 64 -6 16 -26 21 -37 9z"/>
<path d="M4387 2093 c-15 -14 -6 -23 23 -23 20 0 30 5 30 15 0 15 -40 21 -53
8z"/>
<path d="M2998 1539 c-31 -18 -23 -66 19 -105 26 -25 33 -38 26 -45 -14 -14
-33 -3 -33 17 0 8 -7 14 -16 14 -11 0 -14 -8 -12 -32 2 -26 9 -35 31 -43 24
-8 31 -6 43 10 15 20 19 75 7 75 -14 0 -55 69 -48 79 10 17 23 13 30 -9 8 -26
25 -26 25 1 0 40 -36 59 -72 38z"/>
<path d="M3100 1530 c0 -5 7 -10 15 -10 8 0 15 5 15 10 0 6 -7 10 -15 10 -8 0
-15 -4 -15 -10z"/>
<path d="M4320 1530 c0 -5 5 -10 10 -10 6 0 10 5 10 10 0 6 -4 10 -10 10 -5 0
-10 -4 -10 -10z"/>
<path d="M3100 1415 c0 -60 3 -75 15 -75 12 0 15 15 15 75 0 60 -3 75 -15 75
-12 0 -15 -15 -15 -75z"/>
<path d="M3176 1474 c-23 -23 -21 -96 3 -118 27 -24 61 -13 61 20 0 27 -15 32
-24 9 -9 -24 -26 -17 -26 10 0 15 5 25 13 24 29 -4 37 3 37 30 0 40 -35 54
-64 25z m39 -24 c3 -5 -1 -10 -10 -10 -9 0 -13 5 -10 10 3 6 8 10 10 10 2 0 7
-4 10 -10z"/>
<path d="M3280 1413 c0 -42 4 -73 10 -73 6 0 10 18 10 41 0 22 5 49 11 60 17
34 39 5 39 -52 0 -27 5 -49 10 -49 6 0 10 25 10 55 0 42 3 55 15 55 12 0 15
-13 15 -55 0 -42 3 -55 15 -55 12 0 15 13 15 58 0 80 -7 87 -85 88 l-65 0 0
-73z"/>
<path d="M3460 1461 c0 -61 14 -161 21 -161 5 0 9 11 9 25 0 18 4 23 16 18 23
-9 34 15 34 72 0 63 -8 74 -48 73 -28 -1 -32 -5 -32 -27z m65 -47 c0 -28 -4
-39 -15 -39 -16 0 -26 45 -16 72 11 28 31 7 31 -33z"/>
<path d="M3580 1413 c0 -42 4 -73 10 -73 6 0 10 22 10 49 0 37 5 53 18 63 36
26 35 38 -2 36 l-36 -3 0 -72z"/>
<path d="M3681 1459 c-21 -62 -4 -119 36 -119 20 0 43 30 43 56 0 11 -24 2
-35 -13 -14 -19 -35 -9 -35 17 0 14 7 18 30 18 39 -1 41 2 32 38 -6 21 -15 30
-34 32 -21 3 -28 -3 -37 -29z m44 -9 c3 -5 -3 -10 -15 -10 -12 0 -18 5 -15 10
3 6 10 10 15 10 5 0 12 -4 15 -10z"/>
<path d="M3886 1474 c-24 -23 -21 -96 4 -119 27 -24 73 -10 78 23 4 25 -22 31
-32 7 -9 -24 -26 -17 -26 10 0 15 5 25 13 24 35 -4 47 2 47 26 0 40 -54 59
-84 29z m49 -24 c3 -5 -1 -10 -10 -10 -9 0 -13 5 -10 10 3 6 8 10 10 10 2 0 7
-4 10 -10z"/>
<path d="M4002 1469 c-14 -21 -5 -42 26 -62 6 -4 12 -15 12 -24 0 -13 -3 -14
-12 -5 -7 7 -18 12 -25 12 -10 0 -10 -5 -1 -25 6 -14 18 -25 25 -25 25 0 53
20 53 39 0 20 -30 51 -48 51 -14 0 -16 16 -3 24 5 3 11 -1 15 -9 7 -19 36 -20
36 -2 0 18 -32 47 -51 47 -8 0 -20 -9 -27 -21z"/>
<path d="M4194 1473 c5 -16 26 -120 26 -129 0 -4 40 -6 40 -1 0 15 20 116 25
130 5 12 2 17 -8 17 -9 0 -18 -13 -22 -30 -9 -43 -22 -45 -29 -5 -4 22 -13 35
-22 35 -10 0 -13 -6 -10 -17z"/>
<path d="M4320 1415 c0 -43 4 -75 10 -75 6 0 10 32 10 75 0 43 -4 75 -10 75
-6 0 -10 -32 -10 -75z"/>
<path d="M4380 1471 c-5 -11 -10 -36 -10 -56 0 -48 16 -75 43 -75 28 0 47 17
47 42 0 22 -16 24 -24 3 -9 -25 -36 -18 -36 11 0 18 5 25 18 23 9 -1 23 -1 30
0 15 1 16 43 0 59 -18 18 -56 14 -68 -7z m55 -21 c3 -5 -3 -10 -15 -10 -12 0
-18 5 -15 10 3 6 10 10 15 10 5 0 12 -4 15 -10z"/>
<path d="M4513 1483 c-9 -3 -12 -27 -11 -76 1 -60 2 -63 5 -22 3 37 10 56 29
73 13 13 24 25 24 27 0 6 -31 5 -47 -2z"/>
<path d="M4590 1413 c0 -42 4 -73 10 -73 6 0 10 24 10 54 0 38 4 55 15 60 22
8 38 -30 32 -75 -3 -22 -1 -39 4 -39 10 0 12 93 3 127 -5 18 -13 22 -40 21
l-34 -1 0 -74z"/>
<path d="M4710 1471 c-14 -27 -12 -93 4 -113 24 -33 76 -16 76 24 0 22 -16 24
-24 3 -9 -25 -36 -18 -36 11 0 18 5 25 18 23 9 -1 23 -1 30 0 15 1 16 43 0 59
-18 18 -56 14 -68 -7z m55 -21 c3 -5 -3 -10 -15 -10 -12 0 -18 5 -15 10 3 6
10 10 15 10 5 0 12 -4 15 -10z"/>
<path d="M4830 1475 c-18 -22 -4 -60 26 -74 20 -9 24 -15 16 -23 -8 -8 -15 -8
-27 2 -20 16 -29 8 -20 -19 8 -25 47 -28 65 -5 19 22 1 68 -28 72 -22 3 -28
13 -15 25 3 4 15 0 25 -10 24 -21 34 -10 20 22 -13 28 -43 33 -62 10z"/>
</g>
</svg>
